<svg width="128" height="128" viewBox="0 0 128 128" fill="none" xmlns="http://www.w3.org/2000/svg">
<g id="apple-original 1">
<path id="Vector" d="M97.9047 67.8848C98.0787 86.6848 114.399 92.9418 114.579 93.0218C114.441 93.4618 111.972 101.938 105.982 110.691C100.804 118.259 95.4287 125.799 86.9637 125.957C78.6457 126.109 75.9707 121.023 66.4597 121.023C56.9517 121.023 53.9807 125.799 46.1057 126.109C37.9337 126.419 31.7107 117.924 26.4897 110.385C15.8217 94.9608 7.66867 66.7998 18.6157 47.7908C24.0537 38.3508 33.7737 32.3738 44.3227 32.2198C52.3467 32.0668 59.9207 37.6178 64.8257 37.6178C69.7277 37.6178 78.9317 30.9418 88.6077 31.9218C92.6587 32.0908 104.029 33.5578 111.33 44.2458C110.743 44.6108 97.7637 52.1668 97.9047 67.8848ZM82.2717 21.7188C86.6097 16.4678 89.5297 9.15581 88.7337 1.88281C82.4797 2.13381 74.9177 6.04981 70.4327 11.2988C66.4127 15.9458 62.8927 23.3858 63.8417 30.5148C70.8127 31.0548 77.9327 26.9728 82.2717 21.7188Z" fill="url(#paint0_linear_21398_12365)"/>
</g>
<defs>
<linearGradient id="paint0_linear_21398_12365" x1="114.579" y1="1.88281" x2="8.87895" y2="5.87546" gradientUnits="userSpaceOnUse">
<stop stop-color="#B4EBE7"/>
<stop offset="1" stop-color="#EBE0FF"/>
</linearGradient>
</defs>
</svg>
