<svg width="128" height="128" viewBox="0 0 128 128" fill="none" xmlns="http://www.w3.org/2000/svg">
<g id="django-gradient">
<path id="Vector" d="M59.4482 0H80.3781V96.88C69.6411 98.92 61.7581 99.735 53.1971 99.735C27.6461 99.734 14.3271 88.184 14.3271 66.03C14.3271 44.692 28.4621 30.83 50.3421 30.83C53.7401 30.83 56.3222 31.102 59.4482 31.917V0ZM59.4482 48.765C57.0022 47.95 54.9631 47.679 52.3811 47.679C41.7811 47.679 35.6642 54.202 35.6642 65.618C35.6642 76.763 41.5091 82.878 52.2461 82.878C54.5551 82.878 56.4582 82.742 59.4482 82.336V48.765Z" fill="url(#paint0_linear_21399_12367)"/>
<path id="Vector_2" d="M113.672 32.3208V80.8398C113.672 97.5568 112.448 105.575 108.779 112.506C105.381 119.167 100.896 123.379 91.6547 128L72.2197 118.759C81.4617 114.409 85.9457 110.606 88.7997 104.759C91.7897 98.7798 92.7427 91.8488 92.7427 73.6368V32.3208H113.672ZM92.7417 0.11084H113.672V21.5848H92.7417V0.11084Z" fill="url(#paint1_linear_21399_12367)"/>
</g>
<defs>
<linearGradient id="paint0_linear_21399_12367" x1="47.3526" y1="0" x2="47.3526" y2="99.735" gradientUnits="userSpaceOnUse">
<stop offset="0.510417" stop-color="#FFCE20"/>
<stop offset="1" stop-color="#FF7E20" stop-opacity="0.44"/>
</linearGradient>
<linearGradient id="paint1_linear_21399_12367" x1="92.9457" y1="0.11084" x2="92.9457" y2="128" gradientUnits="userSpaceOnUse">
<stop offset="0.510417" stop-color="#FFCE20"/>
<stop offset="1" stop-color="#FF7E20" stop-opacity="0.44"/>
</linearGradient>
</defs>
</svg>
