<svg width="128" height="128" viewBox="0 0 128 128" fill="none" xmlns="http://www.w3.org/2000/svg">
<path d="M76.3968 55.6762C73.6598 55.6762 71.6218 57.0202 71.6218 60.2552C71.6218 62.6922 72.9648 64.3842 76.2498 64.3842C79.0338 64.3842 80.9258 62.7432 80.9258 60.1542C80.9258 57.2202 79.2328 55.6762 76.3968 55.6762ZM70.9258 78.5162C70.2778 79.3112 69.6318 80.1562 69.6318 81.1532C69.6318 83.1422 72.1678 83.7402 75.6528 83.7402C78.5378 83.7402 82.4688 83.5382 82.4688 80.8552C82.4688 79.2602 80.5768 79.1622 78.1878 79.0122L70.9258 78.5162ZM85.6508 55.8262C86.5458 56.9712 87.4928 58.5632 87.4928 60.8522C87.4928 66.3742 83.1638 69.6082 76.8958 69.6082C75.3018 69.6082 73.8588 69.4102 72.9638 69.1612L71.3218 71.7982L76.1968 72.0952C84.8048 72.6442 89.8788 72.8932 89.8788 79.5082C89.8788 85.2312 84.8548 88.4632 76.1968 88.4632C67.1908 88.4632 63.7588 86.1742 63.7588 82.2452C63.7588 80.0052 64.7548 78.8142 66.4958 77.1692C64.8528 76.4752 64.3068 75.2322 64.3068 73.8882C64.3068 72.7932 64.8538 71.7982 65.7498 70.8522C66.6458 69.9082 67.6408 68.9612 68.8338 67.8672C66.3958 66.6732 64.5558 64.0862 64.5558 60.4032C64.5558 54.6822 68.3368 50.7532 75.9488 50.7532C78.0888 50.7532 79.3838 50.9502 80.5268 51.2512H90.2298V55.4792L85.6508 55.8262ZM98.9828 46.7862C96.1458 46.7862 94.5038 45.1432 94.5038 42.3062C94.5038 39.4732 96.1458 37.9292 98.9828 37.9292C101.869 37.9292 103.51 39.4722 103.51 42.3062C103.511 45.1432 101.869 46.7862 98.9828 46.7862ZM92.5628 76.6862V72.7572L95.1018 72.4092C95.7978 72.3092 95.8968 72.1602 95.8968 71.4122V56.7852C95.8968 56.2392 95.7488 55.8892 95.2498 55.7412L92.5628 54.7952L93.1098 50.7672H103.411V71.4132C103.411 72.2112 103.459 72.3092 104.207 72.4102L106.745 72.7582V76.6872L92.5628 76.6862ZM126.42 74.7562C124.279 75.7992 121.146 76.7462 118.308 76.7462C112.388 76.7462 110.15 74.3602 110.15 68.7352V55.7002C110.15 55.4032 110.15 55.2032 109.751 55.2032H106.269V50.7752C110.649 50.2762 112.389 48.0872 112.936 42.6642H117.664V49.7312C117.664 50.0782 117.664 50.2292 118.062 50.2292H125.077V55.2042H117.664V67.0942C117.664 70.0292 118.361 71.1732 121.047 71.1732C122.442 71.1732 123.883 70.8262 125.077 70.3782L126.42 74.7562Z" fill="#F34F29"/>
<path d="M52.7005 61.7L29.9515 38.952C29.3223 38.3231 28.4691 37.9697 27.5795 37.9697C26.6898 37.9697 25.8366 38.3231 25.2075 38.952L20.4835 43.676L26.4745 49.668C27.179 49.4285 27.9365 49.3911 28.6611 49.5601C29.3858 49.729 30.0486 50.0976 30.5745 50.624C31.1035 51.1535 31.4729 51.8211 31.6403 52.5506C31.8078 53.28 31.7666 54.0419 31.5215 54.749L37.2965 60.524C38.15 60.2266 39.0793 60.228 39.9319 60.5279C40.7846 60.8278 41.5101 61.4085 41.9895 62.1747C42.4689 62.941 42.6738 63.8474 42.5706 64.7453C42.4674 65.6433 42.0622 66.4795 41.4215 67.117C40.7692 67.7706 39.9105 68.1778 38.9917 68.2694C38.0728 68.3609 37.1507 68.1311 36.3823 67.619C35.6139 67.107 35.0468 66.3444 34.7775 65.4612C34.5082 64.578 34.5534 63.6287 34.9055 62.775L29.5195 57.389L29.5185 71.563C30.087 71.8438 30.5804 72.256 30.958 72.7654C31.3355 73.2748 31.5862 73.8669 31.6895 74.4925C31.7927 75.1181 31.7454 75.7593 31.5515 76.363C31.3576 76.9667 31.0227 77.5155 30.5745 77.964C30.1565 78.3818 29.6511 78.7016 29.0946 78.9004C28.5381 79.0992 27.9444 79.1719 27.3564 79.1134C26.7683 79.055 26.2006 78.8667 25.6941 78.5622C25.1877 78.2577 24.7551 77.8446 24.4277 77.3527C24.1002 76.8608 23.886 76.3024 23.8005 75.7176C23.715 75.1329 23.7604 74.5365 23.9333 73.9714C24.1063 73.4064 24.4025 72.8867 24.8006 72.45C25.1987 72.0133 25.6888 71.6704 26.2355 71.446V57.141C25.7479 56.9414 25.3048 56.6471 24.9316 56.2753C24.5584 55.9034 24.2625 55.4613 24.061 54.9745C23.8596 54.4878 23.7565 53.9659 23.7578 53.439C23.759 52.9122 23.8646 52.3908 24.0685 51.905L18.1625 45.997L2.56348 61.595C2.25171 61.9067 2.00439 62.2767 1.83566 62.684C1.66693 63.0912 1.58008 63.5277 1.58008 63.9685C1.58008 64.4094 1.66693 64.8459 1.83566 65.2531C2.00439 65.6604 2.25171 66.0304 2.56348 66.342L25.3125 89.09C25.942 89.7191 26.7955 90.0725 27.6855 90.0725C28.5754 90.0725 29.429 89.7191 30.0585 89.09L52.7005 66.446C53.0122 66.1345 53.2595 65.7645 53.4282 65.3574C53.597 64.9502 53.6838 64.5138 53.6838 64.073C53.6838 63.6323 53.597 63.1959 53.4282 62.7887C53.2595 62.3815 53.0122 62.0116 52.7005 61.7Z" fill="#F34F29"/>
</svg>
