<svg width="128" height="128" viewBox="0 0 128 128" fill="none" xmlns="http://www.w3.org/2000/svg">
<path d="M23.0632 6.84487C22.9197 6.85016 22.7791 6.8874 22.6518 6.95388C22.5244 7.02036 22.4135 7.11441 22.3271 7.22918C22.2407 7.34394 22.181 7.47653 22.1523 7.61729C22.1236 7.75806 22.1266 7.90345 22.1612 8.04287L43.0332 92.5229C43.0741 92.6872 43.1575 92.8379 43.275 92.9598C43.3924 93.0817 43.5399 93.1707 43.7025 93.2177C43.8652 93.2647 44.0374 93.2681 44.2018 93.2276C44.3662 93.1871 44.517 93.1041 44.6392 92.9869L107.422 32.5879C107.544 32.4704 107.633 32.3228 107.681 32.1599C107.728 31.9971 107.731 31.8247 107.69 31.6602C107.65 31.4956 107.566 31.3446 107.449 31.2224C107.332 31.1002 107.184 31.011 107.021 30.9639L23.3652 6.88187C23.2672 6.85366 23.1652 6.84118 23.0632 6.84487ZM24.4372 9.19987L104.877 32.3569L44.5072 90.4339L24.4372 9.19987Z" fill="url(#paint0_linear_24206_23123)"/>
<path d="M64.8993 18.8859C64.655 18.8899 64.4213 18.9864 64.2453 19.1559L32.8683 49.3609C32.7462 49.4785 32.6571 49.6261 32.6101 49.789C32.5631 49.9519 32.5598 50.1243 32.6006 50.2889C32.6413 50.4535 32.7246 50.6044 32.8422 50.7266C32.9598 50.8488 33.1074 50.9378 33.2703 50.9849L75.0733 63.0329C75.2362 63.0798 75.4085 63.083 75.573 63.0422C75.7375 63.0014 75.8883 62.918 76.0104 62.8005C76.1325 62.683 76.2216 62.5354 76.2686 62.3726C76.3156 62.2097 76.3189 62.0374 76.2783 61.8729L65.8523 19.6199C65.7998 19.4076 65.6769 19.2195 65.5036 19.0861C65.3303 18.9528 65.1179 18.8822 64.8993 18.8859ZM64.3793 21.7079L74.0023 60.7149L35.4133 49.5919L64.3793 21.7079Z" fill="url(#paint1_linear_24206_23123)"/>
<path d="M49.3264 33.8351C49.1832 33.8408 49.0431 33.8782 48.9162 33.9447C48.7893 34.0112 48.6787 34.1051 48.5926 34.2196C48.5064 34.334 48.4468 34.4663 48.4181 34.6066C48.3893 34.747 48.3922 34.892 48.4264 35.0311L53.6024 56.0191C53.643 56.1839 53.7262 56.3351 53.8438 56.4575C53.9613 56.5798 54.109 56.6691 54.2721 56.7162C54.4351 56.7634 54.6076 56.7667 54.7723 56.726C54.9371 56.6853 55.0882 56.6018 55.2104 56.4841L70.7974 41.4631C70.9195 41.3455 71.0085 41.1978 71.0555 41.0348C71.1024 40.8718 71.1056 40.6994 71.0648 40.5348C71.0239 40.3702 70.9405 40.2193 70.8228 40.0971C70.7051 39.975 70.5574 39.886 70.3944 39.8391L49.6294 33.8721C49.531 33.8438 49.4287 33.8313 49.3264 33.8351ZM50.7004 36.1891L68.2524 41.2321L55.0764 53.9301L50.7004 36.1891Z" fill="url(#paint2_linear_24206_23123)"/>
<path d="M44.163 12.8691C43.9184 12.8729 43.6843 12.9694 43.508 13.1391L27.921 28.1681C27.7989 28.2857 27.7098 28.4334 27.6629 28.5963C27.6159 28.7592 27.6126 28.9316 27.6533 29.0962C27.694 29.2607 27.7774 29.4117 27.8949 29.5339C28.0125 29.656 28.1601 29.7451 28.323 29.7921L49.089 35.7591C49.2519 35.806 49.4242 35.8092 49.5887 35.7684C49.7532 35.7276 49.9041 35.6443 50.0262 35.5268C50.1483 35.4092 50.2373 35.2616 50.2843 35.0988C50.3313 34.936 50.3347 34.7637 50.294 34.5991L45.117 13.6051C45.0647 13.3927 44.9419 13.2043 44.7686 13.0708C44.5953 12.9373 44.3818 12.8655 44.163 12.8691ZM43.641 15.6941L48.018 33.4411L30.464 28.3971L43.641 15.6941ZM85.699 24.8381C85.4551 24.8424 85.2218 24.9389 85.046 25.1081L69.456 40.1301C69.3344 40.248 69.2459 40.3957 69.1994 40.5586C69.1529 40.7214 69.15 40.8936 69.1911 41.0579C69.2321 41.2222 69.3156 41.3728 69.4332 41.4946C69.5507 41.6165 69.6983 41.7053 69.861 41.7521L90.625 47.7191C90.7879 47.766 90.9602 47.7692 91.1247 47.7284C91.2892 47.6876 91.4401 47.6043 91.5622 47.4868C91.6843 47.3692 91.7733 47.2216 91.8203 47.0588C91.8673 46.896 91.8707 46.7237 91.83 46.5591L86.653 25.5721C86.6005 25.3599 86.4776 25.1717 86.3043 25.0384C86.131 24.9051 85.9176 24.8345 85.699 24.8381ZM85.179 27.6621L89.556 45.4021L72.003 40.3581L85.179 27.6621ZM54.523 54.8441C54.2791 54.8484 54.0458 54.9449 53.87 55.1141L38.28 70.1341C38.1579 70.2519 38.069 70.3998 38.0222 70.5629C37.9754 70.726 37.9723 70.8985 38.0134 71.0631C38.0544 71.2278 38.1381 71.3787 38.256 71.5007C38.3739 71.6227 38.5219 71.7115 38.685 71.7581L59.457 77.7251C59.6198 77.7718 59.792 77.7748 59.9564 77.7339C60.1207 77.6931 60.2714 77.6097 60.3934 77.4922C60.5153 77.3747 60.6043 77.2272 60.6512 77.0645C60.6982 76.9018 60.7016 76.7296 60.661 76.5651L55.477 55.5781C55.4245 55.3659 55.3016 55.1777 55.1283 55.0444C54.955 54.9111 54.7416 54.8405 54.523 54.8441ZM54.003 57.6671L58.385 75.4071L40.827 70.3651L54.003 57.6671Z" fill="url(#paint3_linear_24206_23123)"/>
<path d="M25.9566 114.7C25.5046 115.741 24.6506 116.194 23.8386 116.194C22.8116 116.194 21.8496 115.447 21.8496 113.946V108.626H26.1656V107.255H21.8496V103.514L20.3276 103.406V107.255H18.6836V108.626H20.3276V113.946C20.3276 116.323 22.0576 117.694 23.8606 117.694C25.1806 117.694 26.5526 116.984 27.3206 115.318L25.9566 114.7ZM38.7166 116.237V112.13C38.7166 109.588 37.6536 106.975 35.0186 106.975C33.7546 106.975 32.4336 107.556 31.9386 108.454V103.514L30.4226 103.406V117.414H31.9376V110.076C32.3906 109.179 33.0296 108.496 34.2716 108.496C36.0666 108.496 37.0936 109.947 37.0936 111.742V117.414H38.8236C38.7156 117.048 38.7166 116.624 38.7166 116.237ZM50.4336 108.92L51.3736 107.448C50.2256 106.996 49.8376 106.975 49.4506 106.975C48.6606 106.975 47.0596 107.104 46.3486 108.454C46.3486 108.217 46.4986 107.448 46.6286 107.254H42.8876V108.389L44.9626 108.497V116.172H41.8176V117.414H49.5576C49.4506 117.048 49.4506 116.624 49.4506 116.237V116.172H46.4346V110.335C46.7796 108.813 48.7026 107.98 50.4336 108.92ZM58.1306 106.975C55.2226 106.975 53.7006 108.877 53.6216 112.151V113.071C53.6216 115.763 55.5456 117.694 58.2166 117.694C59.7176 117.694 61.1036 117.048 62.0866 115.978L61.1896 114.866C60.0336 115.978 59.0716 116.302 58.1736 116.302C56.3786 116.302 55.1156 114.973 55.1156 113.07L62.3676 113.027L62.3886 112.151C62.5186 108.856 61.0176 106.975 58.1306 106.975ZM60.7876 111.699H55.1376C55.2226 109.609 56.0126 108.303 57.9796 108.303C59.9476 108.303 60.8876 109.523 60.7876 111.699ZM69.8916 106.975C66.9836 106.975 65.4616 108.877 65.3756 112.151V113.071C65.3756 115.763 67.2996 117.694 69.9776 117.694C70.7063 117.691 71.4265 117.537 72.0927 117.242C72.7588 116.947 73.3564 116.516 73.8476 115.978L72.9506 114.866C71.7946 115.978 70.8326 116.302 69.9346 116.302C68.1396 116.302 66.8766 114.973 66.8766 113.07L74.1286 113.027L74.1496 112.151C74.2796 108.856 72.7786 106.975 69.8916 106.975ZM72.5416 111.699H66.8976C66.9836 109.609 67.7736 108.303 69.7406 108.303C71.7086 108.303 72.6496 109.523 72.5416 111.699ZM80.4536 116.56C80.4536 117.285 80.8636 117.694 81.5886 117.694C82.2916 117.694 82.7016 117.285 82.7016 116.56C82.7016 115.85 82.2916 115.447 81.5886 115.447C80.8846 115.447 80.4536 115.849 80.4536 116.56ZM95.1436 105.46C95.8476 105.46 96.2576 105.072 96.2576 104.325C96.2576 103.615 95.8476 103.234 95.1446 103.234C94.4406 103.234 94.0316 103.614 94.0316 104.325C94.0316 105.072 94.4176 105.46 95.1436 105.46ZM92.4306 107.255V108.389L94.5266 108.497V117.414C94.5266 118.929 93.5646 119.662 92.5376 119.662C91.6976 119.662 90.8436 119.209 90.3976 118.182L89.0476 118.779C89.8166 120.473 91.1876 121.155 92.5166 121.155C94.3116 121.155 96.0416 119.805 96.0416 117.415L96.0636 107.255H92.4306ZM105.707 111.599C103.761 111.232 102.863 110.759 102.863 109.947C102.863 109.028 103.976 108.367 105.534 108.367C106.647 108.367 107.394 108.705 108.227 109.588L109.189 108.626C108.442 107.556 107.078 106.975 105.362 106.975C103.014 106.975 101.427 108.174 101.427 109.99C101.427 111.577 102.647 112.496 105.577 113.092C107.351 113.437 107.889 113.752 107.889 114.442C107.889 115.447 106.669 116.323 105.276 116.323C104.084 116.323 103.014 115.663 102.03 114.507L101.004 115.555C102.052 116.941 103.438 117.695 105.254 117.695C107.717 117.695 109.318 116.323 109.318 114.42C109.318 112.877 108.27 112.087 105.707 111.599Z" fill="url(#paint4_linear_24206_23123)"/>
<defs>
<linearGradient id="paint0_linear_24206_23123" x1="64.9257" y1="6.84424" x2="64.9257" y2="93.2556" gradientUnits="userSpaceOnUse">
<stop stop-color="#E2DC4D" stop-opacity="0.5"/>
<stop offset="0.535" stop-color="#32CE70"/>
<stop offset="1" stop-color="#2D99A0" stop-opacity="0.2"/>
</linearGradient>
<linearGradient id="paint1_linear_24206_23123" x1="54.4394" y1="18.8857" x2="54.4394" y2="63.0706" gradientUnits="userSpaceOnUse">
<stop stop-color="#E2DC4D" stop-opacity="0.5"/>
<stop offset="0.535" stop-color="#32CE70"/>
<stop offset="1" stop-color="#2D99A0" stop-opacity="0.2"/>
</linearGradient>
<linearGradient id="paint2_linear_24206_23123" x1="59.7458" y1="33.8345" x2="59.7458" y2="56.7543" gradientUnits="userSpaceOnUse">
<stop stop-color="#E2DC4D" stop-opacity="0.5"/>
<stop offset="0.535" stop-color="#32CE70"/>
<stop offset="1" stop-color="#2D99A0" stop-opacity="0.2"/>
</linearGradient>
<linearGradient id="paint3_linear_24206_23123" x1="59.7416" y1="12.8691" x2="59.7416" y2="77.7625" gradientUnits="userSpaceOnUse">
<stop stop-color="#E2DC4D" stop-opacity="0.5"/>
<stop offset="0.535" stop-color="#32CE70"/>
<stop offset="1" stop-color="#2D99A0" stop-opacity="0.2"/>
</linearGradient>
<linearGradient id="paint4_linear_24206_23123" x1="64.0006" y1="103.234" x2="64.0006" y2="121.155" gradientUnits="userSpaceOnUse">
<stop stop-color="#E2DC4D" stop-opacity="0.5"/>
<stop offset="0.535" stop-color="#32CE70"/>
<stop offset="1" stop-color="#2D99A0" stop-opacity="0.2"/>
</linearGradient>
</defs>
</svg>
