<svg width="128" height="128" viewBox="0 0 128 128" fill="none" xmlns="http://www.w3.org/2000/svg">
<path d="M20.9941 0.994141C9.94845 0.994141 0.994141 9.94845 0.994141 20.9941V107.006C0.994141 118.052 9.94845 127.006 20.9941 127.006H107.006C118.052 127.006 127.006 118.052 127.006 107.006V20.9941C127.006 9.94845 118.052 0.994141 107.006 0.994141H20.9941ZM72.9141 42.7091C72.9141 42.7091 76.9021 72.7651 76.9021 74.1521L82.6871 56.0321H82.6471C85.1991 49.1721 90.2261 42.7091 99.7991 42.7091L86.2361 75.4591C85.0589 79.1702 82.7233 82.4122 79.5681 84.7152C76.4128 87.0182 72.6017 88.2627 68.6871 88.2681C68.6871 88.2681 64.6971 60.1151 64.6971 59.4801L58.7151 74.9451C56.0421 81.8051 50.8581 88.2681 41.2851 88.2681L33.7851 42.7501C37.4349 42.8411 40.9245 44.2593 43.5929 46.7363C46.2613 49.2132 47.9233 52.5768 48.2641 56.1901C48.2641 56.1901 49.2621 72.8831 49.2621 74.1911L56.3221 56.0311C58.8751 49.1711 63.7401 42.7091 72.9141 42.7091Z" fill="#E543FF"/>
</svg>
